<?xml version="1.0" standalone="no"?>
<!DOCTYPE svg PUBLIC "-//W3C//DTD SVG 20010904//EN"
 "http://www.w3.org/TR/2001/REC-SVG-20010904/DTD/svg10.dtd">
<svg version="1.0" xmlns="http://www.w3.org/2000/svg"
 width="265.000000pt" height="265.000000pt" viewBox="0 0 265.000000 265.000000"
 preserveAspectRatio="xMidYMid meet">
<metadata>
Created by potrace 1.14, written by Peter Selinger 2001-2017
</metadata>
<g transform="translate(0.000000,265.000000) scale(0.100000,-0.100000)"
fill="#000000" stroke="none">
<path d="M1321 2505 c-1 -6 -30 -10 -69 -9 -37 0 -71 -2 -77 -5 -18 -10 -45
-8 -45 3 0 6 -4 5 -9 -3 -5 -8 -16 -11 -25 -8 -9 4 -16 2 -16 -3 0 -5 -9 -7
-20 -5 -11 2 -20 -2 -20 -8 0 -7 -4 -6 -10 3 -8 12 -10 12 -10 1 0 -8 -3 -12
-6 -8 -3 3 -24 -1 -46 -9 -22 -7 -44 -11 -49 -8 -5 3 -9 0 -9 -5 0 -6 -9 -11
-21 -11 -11 0 -18 -4 -15 -9 4 -5 -2 -8 -11 -6 -10 1 -24 -2 -31 -8 -7 -5 -15
-7 -18 -4 -4 3 -13 -1 -21 -9 -8 -8 -19 -12 -24 -9 -5 4 -9 1 -9 -5 0 -6 -4
-9 -9 -6 -5 3 -14 -1 -21 -9 -7 -8 -18 -15 -25 -15 -12 0 -134 -75 -162 -99
-6 -6 -25 -19 -42 -29 -17 -10 -28 -22 -24 -25 3 -4 1 -7 -5 -7 -6 0 -25 -13
-42 -30 -17 -16 -36 -30 -42 -30 -6 0 -9 -3 -5 -6 3 -4 -14 -26 -38 -50 -25
-24 -45 -46 -45 -49 0 -5 -25 -36 -48 -61 -7 -8 -10 -14 -6 -14 4 0 -1 -7 -12
-16 -10 -8 -12 -12 -4 -8 9 4 7 -1 -5 -14 -36 -37 -44 -50 -38 -56 4 -3 1 -6
-6 -6 -7 0 -9 -5 -6 -10 3 -6 -1 -17 -9 -26 -9 -8 -16 -24 -16 -35 0 -10 -4
-19 -10 -19 -5 0 -10 -6 -10 -14 0 -8 -6 -17 -12 -19 -10 -4 -9 -6 1 -6 11 -1
10 -6 -4 -21 -10 -11 -14 -20 -9 -20 5 0 2 -5 -6 -10 -9 -6 -10 -10 -3 -10 8
0 6 -10 -5 -32 -15 -31 -19 -48 -25 -108 -2 -14 -6 -30 -9 -35 -3 -6 -5 -31
-5 -58 1 -26 0 -47 -3 -47 -7 0 -4 -96 4 -109 4 -6 3 -11 -1 -11 -12 0 -4 -71
9 -87 7 -9 7 -13 -1 -13 -9 0 -9 -5 -1 -20 6 -11 8 -25 5 -30 -3 -6 -1 -10 5
-10 6 0 9 -4 6 -8 -3 -5 1 -29 9 -54 7 -26 11 -49 8 -52 -4 -3 -1 -6 6 -6 7 0
9 -5 6 -10 -3 -6 -2 -10 4 -10 5 0 8 -9 6 -20 -2 -11 0 -20 6 -20 5 0 9 -9 9
-20 0 -11 5 -20 10 -20 6 0 10 -6 10 -13 0 -19 24 -67 33 -67 5 0 5 -4 2 -10
-3 -5 -2 -10 3 -10 5 0 17 -18 28 -40 10 -22 22 -40 27 -40 4 0 7 -6 7 -13 0
-7 9 -19 20 -27 11 -8 20 -19 20 -25 0 -6 33 -44 74 -85 84 -85 146 -141 146
-132 0 3 9 -4 20 -16 12 -12 25 -22 30 -22 5 0 16 -7 24 -16 9 -9 23 -17 30
-18 8 -1 20 -7 28 -14 8 -6 25 -14 39 -16 13 -3 24 -5 24 -6 0 -12 144 -16
195 -6 19 4 41 8 48 8 6 1 12 5 12 10 0 5 4 7 9 3 5 -3 13 0 16 6 4 5 13 8 21
5 8 -3 13 0 11 7 -1 7 4 11 11 9 6 -1 12 2 12 8 0 5 5 10 10 10 6 0 16 4 23
10 58 47 77 61 77 55 0 -3 6 0 14 7 8 7 12 16 9 21 -2 4 0 7 5 7 15 0 103 86
96 93 -4 4 -2 7 5 7 7 0 9 5 6 10 -3 6 -1 10 5 10 6 0 15 11 20 25 6 14 15 37
22 53 6 15 11 30 10 35 -1 4 2 7 8 7 5 0 7 7 4 15 -4 8 -1 15 6 15 10 0 10 3
1 14 -10 11 -8 17 6 25 10 6 13 11 6 11 -7 0 -11 6 -9 13 14 45 16 68 5 61 -8
-4 -9 -3 -5 4 12 20 15 51 5 57 -5 4 -6 12 -2 18 8 13 6 112 -3 141 -4 13 -2
16 6 11 9 -6 9 -3 1 13 -15 28 -14 32 4 26 8 -4 15 -1 15 6 0 6 4 9 9 5 5 -3
13 0 16 6 4 5 13 8 21 5 8 -3 13 -1 11 3 -1 5 1 10 5 10 10 2 116 53 148 71
14 8 28 13 33 12 4 -1 7 2 7 7 0 6 18 21 40 34 22 13 37 27 33 30 -3 4 -2 7 3
7 6 0 19 7 30 16 10 8 12 12 4 8 -8 -4 2 9 23 30 20 20 37 43 37 51 0 8 8 19
18 24 9 6 13 11 8 11 -5 0 -3 7 4 15 7 8 9 15 4 15 -5 0 -3 4 4 8 11 8 22 38
24 70 1 6 4 12 8 12 7 0 10 19 10 57 0 12 5 25 10 28 6 4 6 15 0 30 -7 18 -6
25 3 25 7 0 8 3 2 8 -5 4 -12 23 -13 42 -2 19 -9 44 -15 55 -6 11 -11 24 -12
28 0 4 -5 11 -12 15 -6 4 -13 14 -15 22 -2 8 -12 24 -23 37 -11 12 -25 28 -31
35 -6 7 -25 24 -43 38 -18 14 -43 35 -56 47 -13 12 -26 19 -29 16 -3 -4 -15 2
-25 11 -11 10 -25 18 -33 20 -7 1 -18 5 -24 9 -6 3 -25 8 -43 9 -17 1 -31 5
-31 8 0 4 -16 6 -35 5 -19 0 -35 4 -35 10 0 5 -5 3 -10 -5 -7 -11 -10 -11 -10
-2 0 7 -4 10 -10 7 -5 -3 -10 0 -10 7 0 8 -3 9 -8 3 -10 -14 -64 -16 -55 -2 4
6 1 7 -7 2 -20 -12 -64 -13 -71 -2 -4 5 -13 6 -20 1 -7 -4 -29 -9 -49 -11 -92
-6 -117 -10 -136 -21 -12 -6 -24 -9 -26 -6 -3 2 -16 0 -29 -5 -23 -9 -58 -22
-69 -26 -3 -1 -17 -5 -32 -9 -16 -5 -28 -12 -28 -18 0 -5 -4 -6 -10 -3 -5 3
-20 -1 -33 -10 -13 -8 -27 -12 -30 -8 -4 3 -7 -1 -7 -11 0 -9 -4 -15 -9 -11
-5 3 -12 1 -16 -5 -4 -6 -11 -8 -16 -5 -5 4 -9 1 -9 -4 0 -6 -5 -11 -11 -11
-29 0 -232 -193 -240 -228 -5 -22 -12 -31 -20 -26 -5 3 -9 -1 -9 -9 0 -22 -26
-68 -34 -60 -4 4 -4 0 0 -10 4 -11 1 -17 -7 -17 -7 0 -9 -3 -6 -7 4 -3 2 -12
-4 -20 -6 -7 -9 -13 -5 -13 4 0 -1 -15 -10 -32 -9 -18 -18 -44 -20 -58 -1 -14
-6 -38 -11 -55 -5 -16 -8 -49 -8 -72 1 -25 -3 -39 -8 -36 -6 4 -7 1 -2 -7 4
-6 9 -29 12 -49 2 -20 7 -43 10 -51 3 -8 5 -21 4 -27 -1 -7 5 -13 14 -13 9 0
15 -9 15 -25 0 -14 5 -25 10 -25 6 0 10 -5 10 -11 0 -15 92 -99 108 -99 7 0
10 -5 6 -12 -4 -7 -3 -8 5 -4 6 4 18 2 26 -4 8 -7 15 -9 15 -5 0 4 6 3 13 -3
21 -18 156 -9 202 13 22 10 43 24 47 29 4 6 8 8 8 4 0 -5 19 11 43 33 23 23
41 44 41 48 -1 3 7 12 17 19 11 7 19 20 19 28 0 8 5 14 11 14 5 0 8 4 4 9 -3
5 1 16 9 24 8 8 12 17 9 21 -4 3 -1 6 5 6 6 0 10 9 9 21 -1 18 -3 18 -13 5 -6
-9 -15 -12 -19 -8 -5 4 -5 1 -1 -5 4 -7 3 -13 -1 -13 -5 0 -19 -10 -33 -23
-31 -28 -123 -80 -113 -64 4 8 2 8 -9 -1 -18 -14 -44 -22 -103 -28 -22 -3 -46
-7 -52 -9 -7 -2 -13 0 -13 6 0 6 -4 7 -10 4 -5 -3 -10 -1 -10 4 0 6 -5 11 -12
11 -26 0 -111 131 -95 147 4 3 2 14 -4 24 -11 21 -19 139 -10 139 3 0 7 12 8
28 4 59 8 82 16 82 4 0 7 9 7 21 0 13 4 18 13 13 7 -5 6 0 -3 11 -8 10 -10 16
-4 12 6 -3 16 9 23 29 7 18 17 34 22 34 5 0 9 6 9 13 0 7 13 27 30 45 16 18
30 35 30 37 0 16 159 155 177 155 6 0 14 7 17 16 3 8 10 12 16 9 5 -3 10 -1
10 5 0 6 4 9 9 5 5 -3 17 2 25 11 9 8 16 12 16 8 0 -3 7 0 17 7 9 8 18 13 20
12 3 -3 10 -3 28 2 6 1 16 3 23 3 7 1 11 6 7 11 -3 6 5 8 19 5 14 -2 28 0 31
6 4 7 12 7 24 0 10 -5 22 -5 27 -1 13 13 57 25 51 14 -3 -5 3 -9 13 -9 10 0
16 4 14 8 -3 4 10 5 28 3 18 -2 60 -6 93 -10 33 -3 61 -10 63 -15 2 -5 10 -6
18 -3 8 3 14 -1 14 -8 0 -7 3 -9 7 -6 3 4 17 0 31 -9 14 -9 21 -11 17 -4 -10
16 54 -29 77 -54 10 -10 18 -15 18 -11 0 5 9 -1 20 -13 11 -12 20 -26 20 -32
0 -6 5 -8 10 -5 6 3 10 1 10 -5 0 -6 7 -18 15 -27 8 -8 13 -19 10 -24 -4 -5 1
-9 10 -9 9 0 13 -4 10 -10 -3 -5 -1 -10 5 -10 6 0 9 -4 5 -9 -3 -5 -1 -12 5
-16 6 -4 8 -11 5 -16 -4 -5 -2 -9 2 -9 5 0 10 -11 11 -26 1 -14 6 -33 11 -43
7 -12 6 -22 0 -28 -8 -8 -8 -17 0 -31 7 -13 7 -23 2 -27 -6 -3 -10 -13 -10
-23 0 -16 -7 -54 -11 -59 -2 -2 -3 -6 -4 -10 -6 -20 -32 -69 -41 -75 -5 -4 -6
-8 -2 -8 4 0 -3 -11 -17 -23 -14 -13 -23 -27 -19 -30 3 -4 -1 -7 -10 -7 -9 0
-17 -4 -17 -9 0 -4 -19 -21 -42 -37 -24 -16 -45 -32 -46 -37 -2 -4 -8 -5 -13
-1 -5 3 -9 1 -9 -4 0 -12 -120 -76 -128 -68 -3 3 -3 6 1 6 3 0 2 14 -3 30 -5
17 -5 30 0 30 12 0 0 32 -14 42 -8 5 -8 8 0 8 8 0 10 11 5 33 -4 17 -7 56 -7
84 1 29 -1 53 -4 53 -3 0 -6 9 -6 20 0 11 4 20 9 20 4 0 5 6 1 12 -9 14 -12
108 -4 108 3 0 5 12 4 28 -1 15 4 33 10 41 9 12 8 13 -4 7 -13 -7 -13 -6 0 6
8 7 15 18 16 23 2 31 18 75 26 75 5 0 6 5 3 10 -3 6 -1 10 5 10 7 0 10 6 7 14
-3 8 1 20 9 27 9 7 22 25 29 40 13 24 13 27 -2 25 -9 -2 -19 -8 -21 -14 -2 -7
-8 -10 -13 -6 -5 3 -9 0 -9 -6 0 -6 -11 -15 -25 -22 -13 -6 -22 -16 -18 -21 4
-7 -1 -8 -13 -3 -10 4 -15 4 -12 0 4 -3 -11 -24 -32 -46 -22 -21 -40 -43 -40
-48 0 -6 -4 -10 -8 -10 -10 0 -52 -77 -52 -96 0 -8 -4 -14 -8 -14 -4 0 -9 -8
-10 -17 -1 -10 -4 -27 -6 -38 -2 -11 -5 -28 -5 -38 -1 -11 -6 -15 -12 -11 -8
4 -8 0 0 -15 7 -11 8 -21 4 -21 -5 0 -8 -30 -8 -66 1 -36 -3 -68 -7 -71 -5 -2
-5 -10 0 -16 5 -7 9 -32 10 -57 2 -55 5 -71 16 -89 7 -10 6 -12 -4 -6 -10 6
-11 4 -4 -6 5 -8 9 -27 10 -44 1 -16 3 -34 4 -40 5 -22 -1 -36 -12 -29 -7 5
-9 2 -6 -7 4 -10 -1 -15 -13 -16 -11 -1 -33 -9 -50 -17 -18 -9 -36 -13 -42 -9
-7 4 -8 0 -3 -12 5 -14 4 -16 -7 -6 -11 9 -17 8 -25 -2 -8 -10 -6 -13 11 -14
11 -1 26 1 32 6 5 4 26 7 47 7 20 -1 34 2 32 5 -2 4 7 9 20 11 17 4 23 1 19
-9 -3 -7 0 -13 6 -13 13 0 10 -22 -4 -32 -6 -5 -6 -8 2 -8 13 0 13 -333 0
-346 -4 -4 -7 -16 -7 -28 0 -53 -94 -184 -128 -178 -9 2 -14 0 -9 -4 9 -10
-74 -52 -110 -56 -16 -2 -34 -10 -41 -18 -10 -11 -12 -12 -6 -1 6 11 3 13 -12
7 -10 -4 -39 -10 -63 -13 -34 -4 -41 -2 -35 9 6 10 5 11 -7 1 -12 -10 -18 -10
-28 0 -9 9 -14 9 -21 -3 -7 -10 -10 -11 -10 -2 0 6 -11 12 -24 12 -14 0 -28 5
-31 10 -3 6 -15 10 -26 10 -10 0 -19 5 -19 10 0 6 -5 10 -11 10 -6 0 -16 6
-23 12 -7 7 -33 29 -57 48 -73 58 -199 190 -199 209 0 5 -4 11 -9 13 -9 3 -78
115 -98 158 -6 14 -19 43 -29 65 -10 22 -17 46 -15 54 1 7 -2 10 -8 7 -5 -4
-9 2 -9 11 1 18 -14 91 -22 113 -1 3 -2 9 -1 14 1 4 -4 14 -10 22 -9 11 -9 14
1 14 8 0 9 4 3 13 -5 6 -8 57 -7 112 2 159 3 177 13 170 6 -3 6 6 1 25 -6 20
-5 30 2 30 5 0 7 7 4 16 -3 9 -2 12 5 8 6 -4 10 1 8 12 -1 11 1 27 5 36 4 9 9
22 10 30 5 21 16 47 53 128 20 41 35 76 35 77 -1 2 10 15 23 29 14 15 23 29
21 32 -3 2 4 14 16 26 11 11 26 35 34 51 7 17 13 23 14 15 0 -8 9 -1 19 17 11
17 28 36 38 41 10 6 17 13 16 16 -2 3 0 6 3 5 4 0 15 12 25 28 10 15 19 25 19
21 0 -5 8 0 18 10 51 48 93 82 102 82 5 0 10 5 10 12 0 6 3 9 6 5 3 -3 11 -1
18 4 48 40 61 49 71 49 7 0 18 7 25 15 6 8 15 14 18 13 18 -3 71 25 65 35 -3
6 -1 7 6 3 6 -4 18 -2 26 4 8 7 15 9 15 5 0 -4 7 -1 17 6 9 8 18 13 20 12 8
-6 24 -2 20 5 -3 4 5 8 16 8 29 2 49 8 65 17 6 5 12 5 12 1 0 -3 6 -2 13 3 6
6 22 9 35 8 12 -1 22 2 22 7 0 5 4 7 9 3 5 -3 13 0 17 6 4 8 9 7 15 -2 7 -11
9 -11 9 -1 0 10 5 10 21 1 17 -9 20 -8 14 2 -6 9 -2 11 13 7 12 -4 22 -2 22 3
0 5 5 9 11 9 5 0 7 -5 3 -12 -5 -8 -3 -8 7 -2 8 5 28 9 45 10 17 1 36 4 42 8
6 3 12 1 14 -5 3 -9 9 -9 26 0 12 6 22 8 22 4 0 -5 22 -8 50 -7 27 1 48 -1 46
-4 -2 -4 12 -6 32 -6 21 1 41 -1 47 -4 5 -3 16 -7 25 -8 43 -4 94 -15 111 -24
10 -6 19 -8 19 -4 0 3 6 1 13 -5 8 -6 17 -8 20 -4 4 3 7 2 7 -4 0 -10 6 -11
55 -14 13 -1 22 -5 19 -10 -3 -5 0 -10 5 -10 33 -4 91 -31 91 -42 0 -6 3 -7 7
-4 3 4 12 2 20 -4 7 -6 13 -8 13 -4 0 5 9 -2 19 -14 11 -12 23 -22 28 -21 9 1
47 -25 71 -50 9 -8 16 -13 17 -10 1 5 7 0 58 -45 15 -14 33 -25 39 -25 6 0 9
-2 6 -5 -3 -3 24 -35 59 -71 35 -36 60 -70 57 -76 -4 -6 -3 -8 4 -4 6 3 16 -7
24 -24 7 -16 19 -30 26 -30 7 0 10 -4 7 -10 -3 -5 -1 -10 5 -10 6 0 9 -4 6 -9
-3 -5 1 -12 9 -15 8 -3 14 -9 13 -13 -5 -18 14 -53 25 -47 7 4 9 4 5 -1 -4 -4
-3 -14 4 -22 6 -7 8 -16 5 -19 -3 -4 0 -13 8 -21 8 -8 15 -23 15 -34 0 -10 5
-19 11 -19 6 0 9 -6 6 -12 -2 -7 1 -22 6 -33 11 -20 14 -31 21 -70 2 -11 6
-28 10 -37 14 -40 15 -48 5 -48 -6 0 -3 -7 5 -16 18 -18 21 -28 5 -18 -7 4 -7
-1 1 -16 6 -12 9 -24 7 -27 -3 -2 -1 -18 3 -34 5 -18 5 -29 -1 -29 -6 0 -7 -5
-4 -11 11 -18 11 -149 0 -149 -5 0 -3 -5 5 -10 8 -5 10 -10 4 -10 -6 0 -12
-15 -12 -32 0 -18 -1 -35 -2 -38 -1 -3 -3 -15 -6 -27 -2 -13 -6 -33 -8 -45 -3
-13 -5 -23 -6 -23 -1 0 -3 -8 -6 -17 -2 -10 -6 -26 -8 -35 -3 -10 -5 -19 -6
-20 -2 -2 -3 -6 -4 -10 -1 -5 -7 -18 -14 -29 -6 -12 -8 -24 -5 -28 3 -3 1 -6
-5 -6 -7 0 -12 -3 -11 -7 2 -16 -14 -53 -23 -53 -5 0 -6 -5 -3 -10 3 -6 1 -10
-5 -10 -6 0 -8 -4 -5 -10 3 -5 1 -10 -5 -10 -6 0 -9 -4 -5 -9 3 -6 -3 -14 -12
-20 -10 -6 -14 -11 -10 -11 4 0 -1 -10 -13 -22 -11 -12 -20 -28 -20 -35 0 -8
-4 -11 -10 -8 -5 3 -10 -1 -10 -10 0 -8 -7 -18 -15 -21 -8 -4 -15 -12 -15 -19
0 -8 -12 -23 -26 -34 -15 -12 -23 -21 -19 -21 4 0 -9 -13 -30 -30 -21 -16 -34
-30 -30 -30 4 0 -11 -13 -33 -30 -49 -35 -82 -39 -82 -10 0 11 -4 20 -8 20 -8
0 -9 13 -14 135 -2 39 -6 75 -10 81 -4 6 -4 14 -1 18 11 11 10 66 -1 66 -7 0
-8 3 -1 8 6 4 10 16 10 27 0 11 -4 23 -10 27 -6 5 -6 8 2 8 12 0 12 24 0 36
-3 4 -2 15 3 25 7 12 7 20 0 24 -8 5 -7 12 2 23 8 10 8 13 1 9 -6 -4 -13 -2
-15 5 -2 6 -14 12 -26 13 -11 1 -19 -1 -17 -5 2 -3 -10 -15 -26 -25 -24 -16
-82 -100 -69 -100 7 0 -53 -146 -62 -151 -4 -3 -8 -12 -8 -20 0 -9 -7 -22 -15
-30 -8 -9 -15 -25 -15 -36 0 -12 -3 -18 -7 -15 -3 4 -11 -3 -18 -16 -22 -42
-40 -71 -53 -85 -7 -7 -9 -18 -6 -24 4 -7 14 -1 25 13 9 13 15 27 12 31 -2 5
-1 8 4 7 20 -3 34 2 28 11 -3 6 1 13 9 16 9 3 16 12 16 20 0 8 3 13 8 12 4 -2
9 1 12 6 8 16 61 66 69 66 4 0 6 -46 6 -101 -1 -63 4 -110 12 -126 7 -13 8
-21 3 -18 -17 10 -11 -16 11 -51 19 -31 31 -38 66 -37 7 1 10 -3 7 -8 -7 -12
1 -11 41 5 19 8 35 13 35 10 0 -3 6 1 13 8 7 7 30 24 50 38 20 14 37 28 37 33
0 4 5 7 11 7 7 0 20 10 30 22 11 11 19 18 19 15 0 -4 25 18 55 49 30 31 55 61
55 66 0 5 5 6 10 3 6 -3 10 1 10 10 0 8 7 18 15 21 8 4 12 10 9 15 -3 5 0 9 5
9 6 0 11 7 11 15 0 8 5 15 10 15 6 0 10 7 10 15 0 8 5 15 12 15 6 0 8 3 5 6
-4 4 3 15 15 25 14 13 17 19 7 19 -9 0 -7 6 7 18 12 9 20 25 19 35 -2 10 3 17
11 17 9 0 13 4 10 8 -3 5 2 21 10 36 7 16 14 37 14 48 0 10 4 17 9 14 5 -4 8
2 6 11 -1 10 4 33 11 52 8 18 12 37 9 41 -3 5 2 16 11 24 11 12 12 16 2 16
-10 0 -9 3 2 10 12 8 12 10 1 10 -10 0 -11 3 -2 13 6 8 8 17 4 20 -3 4 0 7 7
7 7 0 11 3 7 6 -3 3 -2 16 3 29 5 14 5 26 -3 34 -8 8 -8 11 1 11 16 0 14 289
-2 309 -9 12 -8 13 3 6 11 -6 12 -5 5 6 -9 14 -13 30 -18 64 -2 11 -5 27 -8
35 -11 30 -30 95 -30 105 -1 6 -8 16 -17 23 -9 8 -10 10 -3 7 11 -6 11 -3 0
16 -7 13 -17 27 -22 30 -5 4 -5 12 -2 18 4 6 2 11 -3 11 -6 0 -11 7 -11 15 0
8 -9 24 -19 34 -11 11 -16 22 -13 26 4 4 -1 11 -11 16 -9 6 -17 17 -17 24 0 8
-5 15 -11 15 -5 0 -7 5 -4 10 3 6 1 10 -5 10 -6 0 -8 5 -5 10 3 6 -1 10 -9 10
-9 0 -16 7 -16 15 0 23 -226 245 -250 245 -6 0 -10 5 -10 10 0 6 -7 10 -15 10
-8 0 -15 5 -15 12 0 6 -3 8 -7 5 -3 -4 -13 2 -21 14 -7 11 -19 18 -25 16 -6
-2 -19 5 -29 15 -10 10 -25 18 -34 18 -9 0 -12 5 -8 12 4 7 3 8 -4 4 -6 -4
-23 1 -37 10 -14 9 -25 13 -25 8 0 -4 -7 1 -15 12 -8 10 -15 15 -15 10 0 -5
-8 -2 -17 5 -14 12 -16 12 -8 0 5 -8 -9 -1 -30 15 -22 16 -35 23 -30 15 6 -11
4 -13 -11 -7 -10 5 -27 11 -36 13 -10 3 -18 9 -18 12 0 4 -10 7 -22 6 -13 -2
-33 4 -45 11 -15 9 -24 10 -28 3 -5 -7 -14 -4 -28 8 -11 10 -17 12 -13 6 4 -7
2 -13 -3 -13 -6 0 -11 4 -11 10 0 5 -7 7 -15 4 -8 -4 -23 0 -32 7 -14 12 -16
12 -8 -1 7 -12 6 -13 -6 -4 -8 6 -51 10 -96 10 -47 -1 -85 3 -87 9 -3 7 -5 7
-5 0z"/>
<path d="M1964 1302 c-31 -30 -94 -101 -80 -90 4 4 24 -12 43 -35 19 -23 41
-50 49 -59 15 -19 34 -24 34 -9 0 4 11 20 25 35 14 15 25 32 25 37 0 6 5 7 10
4 6 -4 9 -3 8 2 -1 4 3 17 9 29 10 17 9 23 -7 34 -10 8 -17 17 -14 22 3 5 2 7
-3 6 -5 -2 -21 9 -36 25 -15 15 -29 27 -31 27 -2 0 -17 -13 -32 -28z"/>
</g>
</svg>
